<svg t="1740761751320" class="icon" viewBox="0 0 1024 1024" version="1.1" xmlns="http://www.w3.org/2000/svg" p-id="3712" width="20" height="20"><path d="M529.4 987.54c-258.79 0-467.4-208.4-474.92-474.42-3.41-119.81 43.15-235.89 131.1-326.85 90.68-93.78 215.99-147.94 343.8-148.6C655.65 36.9 774.29 85.75 864.04 175c90.52 90.03 140.37 209.92 140.37 337.6 0 261.88-213.09 474.94-475.01 474.94z m2.61-913.6c-0.82 0-1.61 0-2.43 0.01-118.12 0.61-233.99 50.74-317.93 137.54-81.1 83.88-124.05 190.63-120.91 300.6C97.7 758.36 290.38 951.26 529.4 951.26c241.92 0 438.73-196.78 438.73-438.66 0-117.95-46.06-228.71-129.68-311.88C756.2 118.91 647.44 73.94 532.01 73.94z" p-id="3713" fill="#515151"></path><path d="M501.12 304.55l-177.7 188.74 124.52 227.29 254.72-48.2 32.8-257.09z" p-id="3714" fill="#515151"></path><path d="M438.37 740.85l-137.19-250.4 195.77-207.93 258.16 121.99-36.14 283.24-280.6 53.1z m-92.71-244.72l111.86 204.18 228.82-43.3 29.47-230.95-210.51-99.47-159.64 169.54zM617.99 64.39L468.86 185.55l-181.31-60.54c65.6-54.56 223.77-88.28 330.44-60.62z" p-id="3715" fill="#515151"></path><path d="M472.57 205.9l-221.66-74 25.04-20.83c73.92-61.48 239.11-92.11 346.58-64.22l34.73 9.01L472.57 205.9z m-144.11-86.35l136.7 45.64 111-90.18c-85.21-10.3-186.76 11.47-247.7 44.54z" p-id="3716" fill="#515151"></path><path d="M451.256 189.926l35.193-8.77 35.938 144.216-35.192 8.77zM831.02 378.96l149.89 63.22c-13.1-104.29-65.98-181.31-129.05-245.91l-20.84 182.69-112.34 50.81" p-id="3717" fill="#515151"></path><path d="M1002.82 471.11l-171.55-72.36-105.12 47.54-14.95-33.05 102.96-46.57 24-210.39 26.67 27.32C944.6 265.3 987.2 346.75 998.9 439.92l3.92 31.19zM850.58 367.53l106.88 45.08c-13.47-61.6-43.36-118.36-92.07-174.85l-14.81 129.77zM107.55 337.2L240.5 483.87 108.62 672.38C50 458.96 85.56 399.35 107.55 337.2z" p-id="3718" fill="#515151"></path><path d="M101.36 714.4l-10.23-37.22c-55.06-200.46-28.17-272.3-6.56-330.03 2.01-5.38 4-10.69 5.88-16.01l10.13-28.63L263.65 482.4l-162.29 232z m12.85-342.85c-17.92 49.23-33.88 110.03 2.1 258.21l101.04-144.43-103.14-113.78z" p-id="3719" fill="#515151"></path><path d="M238.446 501.874l4.095-36.037 82.916 9.421-4.095 36.038z" p-id="3720" fill="#515151"></path><path d="M259.66 881.27l153.11-51.04 116.67 132.25c-105.06-6.43-197.52-25.11-269.78-81.21z" p-id="3721" fill="#515151"></path><path d="M571.95 983.26l-43.62-2.67c-86.08-5.28-195.68-19.7-279.79-84.99l-26.8-20.8 196.68-65.56 153.53 174.02z m-271.94-96.32c47.64 28.54 106.35 45.49 186.07 53.81l-78.97-89.51-107.1 35.7z" p-id="3722" fill="#515151"></path><path d="M395.5 824.676l35.18-109.655 34.537 11.08-35.182 109.656z" p-id="3723" fill="#515151"></path><path d="M718.68 913.97l33.33-168.1 189.97-36.78c-55.94 116.01-164.3 170.02-223.3 204.88z" p-id="3724" fill="#515151"></path><path d="M693 950.21l43.59-219.83 237.43-45.97-15.7 32.55c-53.25 110.42-149.49 165.9-213.18 202.61-6.1 3.52-11.87 6.84-17.23 10.01L693 950.21z m74.43-188.85l-23.16 116.79c51.33-30.08 117.65-72.97 162.91-143.85l-139.75 27.06z" p-id="3725" fill="#515151"></path><path d="M687.613 682.5l30.134-20.205 49.275 73.491-30.134 20.205z" p-id="3726" fill="#515151"></path></svg>