<svg t="1741518894124" class="icon" viewBox="0 0 1024 1024" version="1.1" xmlns="http://www.w3.org/2000/svg" p-id="16326" width="26" height="26"><path d="M107.632 107.632c15.52-15.52 40.64-15.52 56.16 0L512 455.824 860.208 107.632a39.712 39.712 0 0 1 56.16 56.16L568.176 512l348.192 348.208c14.832 14.832 15.472 38.48 1.936 54.08l-1.936 2.08c-15.52 15.52-40.64 15.52-56.16 0L512 568.176 163.792 916.368a39.712 39.712 0 1 1-56.16-56.16L455.824 512 107.632 163.792a39.712 39.712 0 0 1-1.936-54.08z" fill="#8a8a8a" p-id="16327"></path></svg>