<svg t="1741518651113" class="icon" viewBox="0 0 1024 1024" version="1.1" xmlns="http://www.w3.org/2000/svg" p-id="9607" width="32" height="32"><path d="M1024 512C1024 229.236 794.764 0 512 0S0 229.236 0 512s229.236 512 512 512 512-229.236 512-512z m-977.455 0C46.545 254.93 254.93 46.545 512 46.545c257.07 0 465.455 208.384 465.455 465.455 0 257.07-208.384 465.455-465.455 465.455C254.93 977.455 46.545 769.07 46.545 512z" p-id="9608" fill="#8a8a8a"></path><path d="M531.642 807.517V512h97.513l15.406-97.932H531.642v-49.105c0-25.554 8.378-49.943 45.056-49.943h73.31v-97.746H545.931c-87.506 0-111.384 57.623-111.384 137.495v59.253h-60.043V512h60.043v295.517h97.094z" p-id="9609" fill="#8a8a8a"></path></svg>