<svg t="1741550796545" class="icon" viewBox="0 0 1024 1024" version="1.1" xmlns="http://www.w3.org/2000/svg" p-id="21307" width="20" height="20"><path d="M512.66142 521.158121m-486.361333 0a486.361332 486.361332 0 1 0 972.722665 0 486.361332 486.361332 0 1 0-972.722665 0Z" fill="#E4BC96" p-id="21308"></path><path d="M172.159329 530.219211a228.065697 287.829557 55.787 1 0 476.043043-323.676438 228.065697 287.829557 55.787 1 0-476.043043 323.676438Z" fill="#FFFFFF" opacity=".15" p-id="21309"></path><path d="M512.66142 34.796788c-268.609715 0-486.357262 217.751618-486.357262 486.361333 0 268.605644 217.751618 486.357262 486.357262 486.357262 268.613785 0 486.365403-217.751618 486.365402-486.357262 0-268.609715-217.751618-486.361332-486.365402-486.361333z m347.434677 262.549074l-14.111647-27.905811a412.632356 412.632356 0 0 1 14.111647 27.905811zM347.917005 868.889928a416.193847 416.193847 0 0 1-94.910693-45.497544c-0.00407-0.024422-31.483584-149.574497 37.865776-319.060784-0.00407 0 92.114413 201.714731 57.044917 364.558328z m40.185833 11.115923a414.850656 414.850656 0 0 1-40.157342-11.107783l40.157342 11.107783zM252.994101 823.384244a419.173289 419.173289 0 0 1-45.106797-33.644901l45.106797 33.644901z m226.706225 66.707751a419.686144 419.686144 0 0 1-91.564926-10.078003c0.012211-0.085476 33.583846-244.302027-100.311948-415.921139 0 0-105.998124 135.845457-79.940218 325.64649-89.696669-76.736911-146.558423-190.729056-146.558423-318.026933 0-19.838525 1.412386-39.343286 4.082487-58.441021 0.040703-0.024422 92.586565-57.195516 186.483759 45.762111l13.676126-20.729915S145.799316 312.523921 69.56305 388.760188l-4.151682 24.482709c28.447158-203.375403 203.074203-359.901932 414.288958-359.901932 12.284093 0 24.437936 0.561698 36.457461 1.599619-19.993195 23.729708-61.07856 90.217664-7.135194 192.401939l26.379458-9.263948s-60.508721-169.97472 54.732999-169.974719h-0.00814c109.946291 30.014214 201.828699 103.72284 255.845329 201.328054-0.016281-0.012211-127.212402-74.9582-318.914253 6.308928l17.213196 21.98356s165.737563-44.541029 315.995866-0.00407c24.262914 52.986851 37.804722 111.908164 37.804722 173.996152 0 33.412895-3.940027 65.905907-11.339788 97.059798l6.626409-34.104841s-310.069544-138.10446-403.002083-254.241641c0 0-151.459035 49.763193-182.543731 155.993322l14.416917 18.820955s84.002353-93.746594 166.409158-126.707687c0 0 153.400556 192.10888 398.08926 240.268384-43.783957 184.232896-209.387201 321.287225-407.027586 321.287225z" fill="#D19E6D" opacity=".57" p-id="21310"></path><path d="M1000.935782 522.704826c-197.750282-27.470292-390.245838-130.501185-473.861515-246.963988 52.612386-19.317529 109.413085-29.863614 168.639669-29.863614 83.623817 0 166.173082 21.40151 238.73796 61.896685a16.484617 16.484617 0 0 0 16.065379-28.784991c-77.46142-43.22633-165.574752-66.072788-254.807409-66.072788-65.734955 0-128.66549 12.210828-186.687273 34.426393a231.081771 231.081771 0 0 1-12.84172-27.051053c-24.474569-62.079847-14.624501-120.99709 29.281564-175.107338a16.484617 16.484617 0 0 0-25.597964-20.770617c-51.224422 63.125908-63.101487 135.039542-34.349058 207.966674a263.96553 263.96553 0 0 0 12.927196 27.783703c-75.735623 34.67875-141.820622 86.90039-193.036903 151.434613-17.905143-18.010971-37.108705-33.209381-57.407171-45.062024-67.179903-39.225248-139.268559-36.917402-192.841529 6.174609a16.476477 16.476477 0 1 0 20.66072 25.683441c43.132713-34.695031 99.831656-35.936466 155.557803-3.39461 18.784323 10.965323 37.006948 25.463646 54.191652 43.307735-58.896892 84.69023-93.486096 187.493187-93.486095 298.237252 0 60.956451 10.383274 120.667398 30.856761 177.488449a16.484617 16.484617 0 0 0 31.011432-11.172907c-19.17914-53.231068-28.903029-109.18922-28.903029-166.319612 0-100.710836 30.514858-194.416726 82.756848-272.395071 79.142444 101.907497 127.892138 282.85975 87.816202 525.558089a16.484617 16.484617 0 0 0 32.521504 5.364623c25.256062-152.944686 17.925495-294.997313-21.193926-410.808872-19.541394-57.858971-46.616869-107.996629-79.158725-147.812067C357.042563 372.918674 421.515733 321.767517 495.704651 288.517434c86.90446 127.525813 288.000509 237.272661 500.688703 266.822863a16.468336 16.468336 0 0 0 18.58895-14.054662 16.468336 16.468336 0 0 0-14.046522-18.580809z" fill="#6E6E96" p-id="21311"></path><path d="M375.358804 403.535289l285.293776 445.503903 28.846045-15.300167L397.484824 384.95855zM344.644503 348.452246L217.627474 155.745035l15.800811-22.923793L363.257874 332.354305z" fill="#D19E6D" opacity=".57" p-id="21312"></path><path d="M512.66142 51.277335c259.09341 0 469.880785 210.787376 469.880785 469.880786 0 259.089339-210.787376 469.876715-469.880785 469.876715-259.09341 0-469.876715-210.787376-469.876715-469.876715-0.00407-259.09341 210.783306-469.880785 469.876715-469.880786zM9.819541 521.158121c0 277.267191 225.570618 502.841879 502.841879 502.841879 277.271262 0 502.84595-225.574688 502.845949-502.841879S789.932681 18.316241 512.66142 18.316241c-277.267191 0-502.841879 225.574688-502.841879 502.84188z" fill="#6E6E96" p-id="21313"></path><path d="M260.707274 115.046347l520.69818 800.232515-27.29527 17.762683L233.416074 132.804961z" fill="#6E6E96" p-id="21314"></path></svg>