<svg t="1741162690073" class="icon" viewBox="0 0 1024 1024" version="1.1" xmlns="http://www.w3.org/2000/svg" p-id="2293" width="20" height="20"><path d="M512.7 962c-26.9 0-52.4-13.5-71.6-38.9L288.3 750.2H183.7c-67 0-121.6-54.5-121.6-121.6V395.4c0-67 54.5-121.6 121.6-121.6h104.6L441.7 100c25.5-33 61.9-45.6 97.7-33.6 43.7 14.7 73.1 62.2 73.1 118.3v654.5c0 56.1-29.4 103.6-73.1 118.3-8.9 3-17.9 4.5-26.7 4.5z m-329-635.2c-37.9 0-68.7 30.8-68.7 68.7v233.2c0 37.9 30.8 68.7 68.7 68.7h116.6c7.6 0 14.8 3.2 19.8 8.9L482 889.6c9.4 12.3 22.8 23.8 40.6 17.7 17.8-6 37-29.8 37-68.1V184.8c0-38.3-19.2-62.1-37-68.1-17.9-6-31.2 5.5-39.3 16.2-0.4 0.5-0.8 1.1-1.3 1.6L320.1 317.8c-5 5.7-12.3 8.9-19.8 8.9H183.7z m278.5-209.9h0.4-0.4zM752.1 697.3c-4.5 0-9-1.1-13.2-3.6-12.7-7.3-17-23.5-9.7-36.2L912.5 340c7.3-12.7 23.5-17 36.2-9.7 12.7 7.3 17 23.5 9.7 36.2L775 684c-4.9 8.5-13.8 13.3-22.9 13.3z" fill="#2c2c2c" p-id="2294"></path><path d="M935.4 697.3c-9.1 0-18-4.8-22.9-13.2L729.2 366.4c-7.3-12.7-3-28.8 9.7-36.2 12.6-7.3 28.8-3 36.2 9.7l183.4 317.6c7.3 12.7 3 28.8-9.7 36.2-4.3 2.4-8.9 3.6-13.4 3.6z" fill="#2c2c2c" p-id="2295"></path></svg>