<svg t="1742657472798" class="icon" viewBox="0 0 1025 1024" version="1.1" xmlns="http://www.w3.org/2000/svg" p-id="2306" width="26" height="26"><path d="M890.701247 1024h-96.01596c-20.939651 0-37.793516-16.853865-37.793516-37.793516s16.853865-37.793516 37.793516-37.793516h96.01596c20.939651 0 37.793516 16.853865 37.793516 37.793516s-16.853865 37.793516-37.793516 37.793516z m-201.224938 0h-96.01596c-20.939651 0-37.793516-16.853865-37.793516-37.793516s16.853865-37.793516 37.793516-37.793516H689.476309c20.939651 0 37.793516 16.853865 37.793516 37.793516s-16.853865 37.793516-37.793516 37.793516z m-201.224937 0H392.235411c-20.939651 0-37.793516-16.853865-37.793516-37.793516s16.853865-37.793516 37.793516-37.793516h96.015961c20.939651 0 37.793516 16.853865 37.793516 37.793516s-16.853865 37.793516-37.793516 37.793516z m-201.224938 0H191.521197c-20.939651 0-37.793516-16.853865-37.793516-37.793516s16.853865-37.793516 37.793516-37.793516h96.01596c20.939651 0 37.793516 16.853865 37.793516 37.793516s-17.364589 37.793516-38.304239 37.793516z m-199.182045-12.257357c-6.128678 0-12.76808-1.53217-18.386035-4.596508C29.111222 984.674314 4.085786 943.816459 1.53217 898.362095c-1.021446-20.939651 14.810973-38.814963 35.750623-39.836409 20.939651-1.021446 38.814963 14.810973 39.836409 35.750623 1.021446 19.407481 11.746633 37.282793 29.111222 46.475811 18.386035 10.214464 25.025436 33.197007 14.810973 51.583042-7.150125 12.76808-19.918204 19.407481-33.197008 19.407481z m887.636908-40.857855c-5.617955 0-11.23591-1.021446-16.343142-4.085786-18.896758-9.193017-26.557606-31.664838-17.364589-50.561596 3.575062-7.660848 5.617955-16.343142 5.617955-25.025436v-53.115212c0-20.939651 16.853865-37.793516 37.793516-37.793516s37.793516 16.853865 37.793517 37.793516v53.115212c0 20.428928-4.596509 39.836409-13.278803 58.222444-6.639401 13.278803-19.918204 21.450374-34.218454 21.450374zM39.325686 828.903741c-20.939651 0-37.793516-16.853865-37.793516-37.793517v-96.01596c0-20.939651 16.853865-37.793516 37.793516-37.793516s37.793516 16.853865 37.793516 37.793516v96.01596c0 20.939651-16.853865 37.793516-37.793516 37.793517zM985.185037 771.19202c-20.939651 0-37.793516-16.853865-37.793516-37.793516v-96.01596c0-20.939651 16.853865-37.793516 37.793516-37.793517s37.793516 16.853865 37.793517 37.793517v96.01596c0 20.428928-16.853865 37.793516-37.793517 37.793516zM39.325686 627.678803c-20.939651 0-37.793516-16.853865-37.793516-37.793516V493.869327c0-20.939651 16.853865-37.793516 37.793516-37.793517s37.793516 16.853865 37.793516 37.793517v96.01596c0 20.939651-16.853865 37.793516-37.793516 37.793516z m945.859351-57.711721c-20.939651 0-37.793516-16.853865-37.793516-37.793516V436.157606c0-20.939651 16.853865-37.793516 37.793516-37.793516s37.793516 16.853865 37.793517 37.793516v96.01596c0 20.939651-16.853865 37.793516-37.793517 37.793516zM39.325686 426.453865c-20.939651 0-37.793516-16.853865-37.793516-37.793516V292.644389c0-20.939651 16.853865-37.793516 37.793516-37.793516s37.793516 16.853865 37.793516 37.793516v96.01596c0 20.939651-16.853865 37.793516-37.793516 37.793516z m945.859351-57.71172c-20.939651 0-37.793516-16.853865-37.793516-37.793517V234.932668c0-20.939651 16.853865-37.793516 37.793516-37.793516s37.793516 16.853865 37.793517 37.793516v96.01596c0 20.939651-16.853865 37.793516-37.793517 37.793517zM39.325686 225.228928c-20.939651 0-37.793516-16.853865-37.793516-37.793517V134.830923c0-20.428928 4.596509-39.836409 13.278803-58.222444 9.193017-18.896758 31.664838-26.557606 50.561596-17.364589 18.896758 9.193017 26.557606 31.664838 17.364588 50.561596-3.575062 7.660848-5.617955 16.343142-5.617955 25.025437v52.604488c0 20.939651-16.853865 37.793516-37.793516 37.793517z m945.859351-57.711721c-19.918204 0-36.77207-15.832419-37.793516-35.750623-1.021446-19.407481-11.746633-37.282793-29.111222-46.475811-18.386035-10.214464-25.025436-33.197007-14.810972-51.583042 10.214464-18.386035 33.197007-25.025436 51.583042-14.810973 40.347132 22.47182 65.883292 62.818953 67.926185 108.78404 1.021446 20.939651-14.810973 38.814963-35.750624 39.836409h-2.042893z m-152.195511-89.376559h-96.01596c-20.939651 0-37.793516-16.853865-37.793516-37.793516s16.853865-37.793516 37.793516-37.793516h96.01596c20.939651 0 37.793516 16.853865 37.793516 37.793516s-16.853865 37.793516-37.793516 37.793516z m-201.224937 0h-96.015961c-20.939651 0-37.793516-16.853865-37.793516-37.793516s16.853865-37.793516 37.793516-37.793516h96.015961c20.939651 0 37.793516 16.853865 37.793516 37.793516s-16.853865 37.793516-37.793516 37.793516z m-201.224938 0H335.034414c-20.939651 0-37.793516-16.853865-37.793516-37.793516S314.094763 2.553616 335.034414 2.553616h96.01596c20.939651 0 37.793516 16.853865 37.793516 37.793516s-17.364589 37.793516-38.304239 37.793516z m-201.224938 0H133.809476c-20.939651 0-37.793516-16.853865-37.793516-37.793516S112.869825 2.553616 133.809476 2.553616H229.825436c20.939651 0 37.793516 16.853865 37.793517 37.793516s-17.364589 37.793516-38.30424 37.793516zM736.973566 513.276808c0 22.47182-18.386035 40.857855-40.857855 40.857855h-143.002494v143.002494c0 22.47182-18.386035 40.857855-40.857855 40.857855-11.23591 0-21.450374-4.596509-29.111222-11.746633-7.150125-7.660848-11.746633-17.875312-11.746634-29.111222v-143.002494h-143.002494c-22.47182 0-40.857855-18.386035-40.857855-40.857855 0-11.23591 4.596509-21.450374 11.746634-29.111222s17.364589-11.746633 29.111221-11.746633h143.002494v-143.002494c0-22.47182 18.386035-40.857855 40.857856-40.857856s40.857855 18.386035 40.857855 40.857856v143.002494h143.002494c22.47182 0 40.857855 18.386035 40.857855 40.857855z" p-id="2307" fill="#8a8a8a"></path></svg>