<svg t="1741162713143" class="icon" viewBox="0 0 1024 1024" version="1.1" xmlns="http://www.w3.org/2000/svg" p-id="3359" width="20" height="20"><path d="M353.024 900.416H109.952c-57.856 0-109.952-46.336-109.952-98.432V153.6c0-52.096 52.096-98.432 109.952-98.432h810.176c57.856 0 104.192 46.336 104.192 98.496v185.472c0 28.928-23.168 52.096-46.336 52.096s-46.272-23.168-46.272-52.096V159.36H98.368V807.68h248.896c34.688 0 52.032 17.408 52.032 46.336 0 28.928-17.344 46.272-46.272 46.272" fill="#8a8a8a" p-id="3360"></path><path d="M619.2 631.488c-5.76 0-5.76 5.76-5.76 11.52v223.04c0 5.76 5.76 11.52 5.76 11.52h289.344c5.76 0 11.584-5.76 11.584-11.52v-222.976c0-5.824-5.76-11.584-11.52-11.584H619.136z m289.344 338.688h-289.28a103.68 103.68 0 0 1-104.192-104.128v-222.976c0-57.92 46.272-109.952 104.128-109.952h289.344c57.856 0 104.128 46.272 104.128 109.952v222.976c5.824 57.856-40.448 104.128-104.128 104.128z" fill="#8a8a8a" p-id="3361"></path></svg>